<svg width="41" height="40" viewBox="0 0 41 40" fill="none" xmlns="http://www.w3.org/2000/svg">
<path fill-rule="evenodd" clip-rule="evenodd" d="M40.5 20C40.5 31.0457 31.5457 40 20.5 40C9.4543 40 0.5 31.0457 0.5 20C0.5 8.9543 9.4543 0 20.5 0C31.5457 0 40.5 8.9543 40.5 20ZM25.4388 25.6884H23.8465C22.4377 23.223 22.4735 23.2712 22.511 23.3217C22.5485 23.3722 22.5877 23.425 21.1926 20.9807C22.4494 18.7787 22.4362 18.8016 22.3318 18.9829C22.2119 19.191 21.9718 19.6079 23.3965 17.1038C23.6 17.4403 23.7769 17.7397 23.9489 18.0307L23.949 18.0309C24.0306 18.1689 24.111 18.305 24.1927 18.4423C23.8162 19.1016 23.5808 19.5134 23.4426 19.7551C23.2988 20.008 23.0745 20.4023 22.7388 20.9923C24.1925 23.5183 24.105 23.3589 24.0726 23.2999L24.0661 23.2878C24.0664 23.2876 24.1199 23.3811 24.3969 23.8659L24.3981 23.8679L25.4388 25.6884ZM22.7617 15.9499C22.5078 15.5114 22.2886 15.1307 21.9771 14.5768C20.8329 16.5802 20.6147 16.9587 20.5893 17.0014C20.6107 16.963 20.6068 16.9696 20.5995 16.9825C20.5921 16.9954 20.5814 17.0146 20.5893 17.0014C20.5278 17.1112 20.2584 17.5894 19.2655 19.3422H16.3578C16.2217 19.5836 16.0955 19.8116 15.9668 20.0442L15.9666 20.0446L15.9658 20.046L15.9657 20.0463C15.8548 20.2467 15.742 20.4505 15.6194 20.6691H20.0617C21.5176 18.1241 21.4496 18.2507 21.4179 18.3097L21.4179 18.3098C21.414 18.317 21.4106 18.3233 21.4107 18.3233C21.4115 18.3238 21.54 18.0978 22.4465 16.504L22.452 16.4944L22.4551 16.4889L22.4566 16.4863L22.7617 15.9499ZM21.4454 23.7596L21.4454 23.7596C21.3231 23.546 21.1565 23.2549 22.5432 25.6653H20.9624L20.2879 24.4925C20.5223 24.8989 20.7055 25.2143 19.5432 23.1845H14.1547C14.2633 22.99 14.363 22.8096 14.4588 22.6365C14.6071 22.3681 14.7459 22.1171 14.8932 21.8576H20.3509C21.6357 24.0921 21.5602 23.9601 21.4454 23.7596ZM20.0652 24.1055C20.0927 24.1534 20.1944 24.3302 20.2879 24.4925C20.0844 24.1387 20.0377 24.0576 20.0652 24.1055ZM13.4165 25.6885H18.1011C18.5973 25.6885 19.0703 25.6885 19.6819 25.6769C18.3627 23.3922 19.0792 24.6418 19.4486 25.2861L19.4487 25.2863C19.7061 25.7351 19.7948 25.8898 18.9088 24.35H13.4396L13.0473 25.0654C12.8973 25.3538 13.1049 25.6885 13.4165 25.6885ZM25.658 20.9575C27.0381 23.3698 26.9984 23.3198 26.9571 23.268C26.9191 23.2202 26.8798 23.1708 27.9541 25.0537C28.1157 25.3306 27.908 25.6768 27.5964 25.6768H26.7772C25.3506 23.2294 25.3872 23.318 25.4146 23.3845C25.4419 23.4504 25.4601 23.4946 24.0426 21.0383C25.2323 18.95 24.6901 19.9055 24.3272 20.5451L24.3268 20.5457C24.0282 21.0719 23.8514 21.3835 24.8618 19.6075C25.1618 20.1268 25.4041 20.5421 25.658 20.9575ZM19.155 14.4641C19.1552 14.4643 18.9951 14.7445 17.8125 16.8153C17.5702 17.2538 17.3394 17.6577 17.051 18.1538H18.6202C20.0156 15.7005 19.9966 15.7357 19.9667 15.7913C19.9362 15.8478 19.8944 15.9255 21.3202 13.423L20.8702 12.6961C20.7087 12.4307 20.3164 12.4307 20.1548 12.7077C18.8946 14.9179 19.1547 14.464 19.155 14.4641Z" fill="white"/>
</svg>
